<svg width="169" height="37" viewBox="0 0 169 37" fill="none" xmlns="http://www.w3.org/2000/svg">
<path d="M11.44 29.56C9.33333 29.56 7.46667 29.1867 5.84 28.44C4.21333 27.6933 2.93333 26.6 2 25.16C1.09333 23.6933 0.64 21.92 0.64 19.84V18.84H4.92V19.84C4.92 21.8133 5.50667 23.2933 6.68 24.28C7.88 25.2667 9.46667 25.76 11.44 25.76C13.44 25.76 14.9467 25.3467 15.96 24.52C16.9733 23.6667 17.48 22.5733 17.48 21.24C17.48 20.36 17.24 19.64 16.76 19.08C16.28 18.52 15.6 18.08 14.72 17.76C13.84 17.4133 12.7867 17.0933 11.56 16.8L10.08 16.44C8.29333 16.0133 6.73333 15.4933 5.4 14.88C4.09333 14.24 3.08 13.4 2.36 12.36C1.64 11.32 1.28 9.98667 1.28 8.36C1.28 6.70667 1.68 5.29333 2.48 4.12C3.30667 2.94667 4.44 2.04 5.88 1.4C7.32 0.759998 9.01333 0.439998 10.96 0.439998C12.9067 0.439998 14.64 0.773332 16.16 1.44C17.7067 2.10667 18.92 3.09333 19.8 4.4C20.68 5.70667 21.12 7.34667 21.12 9.32V10.76H16.84V9.32C16.84 8.12 16.5867 7.14667 16.08 6.4C15.6 5.65333 14.92 5.10667 14.04 4.76C13.16 4.41333 12.1333 4.24 10.96 4.24C9.25333 4.24 7.92 4.6 6.96 5.32C6.02667 6.01333 5.56 6.98666 5.56 8.24C5.56 9.09333 5.76 9.8 6.16 10.36C6.58667 10.8933 7.2 11.3333 8 11.68C8.8 12.0267 9.8 12.3333 11 12.6L12.48 12.96C14.2933 13.36 15.8933 13.88 17.28 14.52C18.6667 15.1333 19.76 15.9733 20.56 17.04C21.36 18.1067 21.76 19.48 21.76 21.16C21.76 22.84 21.3333 24.3067 20.48 25.56C19.6533 26.8133 18.4667 27.8 16.92 28.52C15.3733 29.2133 13.5467 29.56 11.44 29.56ZM32.535 29.56C31.1217 29.56 29.855 29.32 28.735 28.84C27.6417 28.36 26.7617 27.6533 26.095 26.72C25.455 25.7867 25.135 24.6533 25.135 23.32C25.135 21.96 25.455 20.84 26.095 19.96C26.7617 19.0533 27.655 18.3733 28.775 17.92C29.9217 17.4667 31.215 17.24 32.655 17.24H38.655V15.96C38.655 14.8133 38.3083 13.8933 37.615 13.2C36.9217 12.5067 35.855 12.16 34.415 12.16C33.0017 12.16 31.9217 12.4933 31.175 13.16C30.4283 13.8267 29.935 14.6933 29.695 15.76L25.855 14.52C26.175 13.4533 26.6817 12.4933 27.375 11.64C28.095 10.76 29.0417 10.0533 30.215 9.52C31.3883 8.98667 32.8017 8.72 34.455 8.72C37.015 8.72 39.0283 9.37333 40.495 10.68C41.9617 11.9867 42.695 13.84 42.695 16.24V24.36C42.695 25.16 43.0683 25.56 43.815 25.56H45.495V29H42.415C41.4817 29 40.7217 28.76 40.135 28.28C39.5483 27.8 39.255 27.1467 39.255 26.32V26.2H38.655C38.4417 26.6 38.1217 27.0667 37.695 27.6C37.2683 28.1333 36.6417 28.6 35.815 29C34.9883 29.3733 33.895 29.56 32.535 29.56ZM33.135 26.16C34.7883 26.16 36.1217 25.6933 37.135 24.76C38.1483 23.8 38.655 22.4933 38.655 20.84V20.44H32.895C31.8017 20.44 30.9217 20.68 30.255 21.16C29.5883 21.6133 29.255 22.2933 29.255 23.2C29.255 24.1067 29.6017 24.8267 30.295 25.36C30.9883 25.8933 31.935 26.16 33.135 26.16ZM49.5009 37V9.28H53.5409V12.12H54.1809C54.6876 11.24 55.4476 10.4533 56.4609 9.76C57.5009 9.06667 58.9809 8.72 60.9009 8.72C62.5543 8.72 64.0609 9.12 65.4209 9.92C66.8076 10.72 67.9143 11.88 68.7409 13.4C69.5943 14.8933 70.0209 16.7067 70.0209 18.84V19.44C70.0209 21.5733 69.6076 23.4 68.7809 24.92C67.9543 26.4133 66.8476 27.56 65.4609 28.36C64.0743 29.16 62.5543 29.56 60.9009 29.56C59.6209 29.56 58.5409 29.4 57.6609 29.08C56.7809 28.76 56.0743 28.36 55.5409 27.88C55.0076 27.3733 54.5809 26.8533 54.2609 26.32H53.6209V37H49.5009ZM59.7009 25.96C61.5143 25.96 62.9943 25.3867 64.1409 24.24C65.2876 23.0933 65.8609 21.4533 65.8609 19.32V18.96C65.8609 16.8533 65.2743 15.2267 64.1009 14.08C62.9543 12.9333 61.4876 12.36 59.7009 12.36C57.9409 12.36 56.4743 12.9333 55.3009 14.08C54.1543 15.2267 53.5809 16.8533 53.5809 18.96V19.32C53.5809 21.4533 54.1543 23.0933 55.3009 24.24C56.4743 25.3867 57.9409 25.96 59.7009 25.96ZM75.1259 37V9.28H79.1659V12.12H79.8059C80.3126 11.24 81.0726 10.4533 82.0859 9.76C83.1259 9.06667 84.6059 8.72 86.5259 8.72C88.1793 8.72 89.6859 9.12 91.0459 9.92C92.4326 10.72 93.5393 11.88 94.3659 13.4C95.2193 14.8933 95.6459 16.7067 95.6459 18.84V19.44C95.6459 21.5733 95.2326 23.4 94.4059 24.92C93.5793 26.4133 92.4726 27.56 91.0859 28.36C89.6993 29.16 88.1793 29.56 86.5259 29.56C85.2459 29.56 84.1659 29.4 83.2859 29.08C82.4059 28.76 81.6993 28.36 81.1659 27.88C80.6326 27.3733 80.2059 26.8533 79.8859 26.32H79.2459V37H75.1259ZM85.3259 25.96C87.1393 25.96 88.6193 25.3867 89.7659 24.24C90.9126 23.0933 91.4859 21.4533 91.4859 19.32V18.96C91.4859 16.8533 90.8993 15.2267 89.7259 14.08C88.5793 12.9333 87.1126 12.36 85.3259 12.36C83.5659 12.36 82.0993 12.9333 80.9259 14.08C79.7793 15.2267 79.2059 16.8533 79.2059 18.96V19.32C79.2059 21.4533 79.7793 23.0933 80.9259 24.24C82.0993 25.3867 83.5659 25.96 85.3259 25.96ZM100.751 29V0.999998H104.871V12.08H105.511C105.778 11.5733 106.151 11.08 106.631 10.6C107.138 10.12 107.791 9.73333 108.591 9.44C109.418 9.12 110.458 8.96 111.711 8.96C113.204 8.96 114.524 9.29333 115.671 9.96C116.844 10.6267 117.764 11.5733 118.431 12.8C119.098 14 119.431 15.4533 119.431 17.16V29H115.311V17.48C115.311 15.7733 114.884 14.52 114.031 13.72C113.178 12.8933 112.004 12.48 110.511 12.48C108.804 12.48 107.431 13.04 106.391 14.16C105.378 15.28 104.871 16.9067 104.871 19.04V29H100.751ZM125.36 29V9.28H129.48V29H125.36ZM127.44 6.6C126.64 6.6 125.96 6.34667 125.4 5.84C124.867 5.30666 124.6 4.62666 124.6 3.8C124.6 2.97333 124.867 2.30667 125.4 1.8C125.96 1.26667 126.64 0.999998 127.44 0.999998C128.267 0.999998 128.947 1.26667 129.48 1.8C130.014 2.30667 130.28 2.97333 130.28 3.8C130.28 4.62666 130.014 5.30666 129.48 5.84C128.947 6.34667 128.267 6.6 127.44 6.6ZM135.595 29V9.28H139.635V11.6H140.275C140.595 10.7733 141.101 10.1733 141.795 9.8C142.515 9.4 143.395 9.2 144.435 9.2H146.795V12.92H144.275C142.941 12.92 141.848 13.2933 140.995 14.04C140.141 14.76 139.715 15.88 139.715 17.4V29H135.595ZM159.4 29.56C157.4 29.56 155.654 29.1467 154.16 28.32C152.667 27.4667 151.494 26.28 150.64 24.76C149.814 23.2133 149.4 21.4267 149.4 19.4V18.92C149.4 16.8667 149.814 15.08 150.64 13.56C151.467 12.0133 152.614 10.8267 154.08 10C155.574 9.14667 157.294 8.72 159.24 8.72C161.134 8.72 162.787 9.14667 164.2 10C165.64 10.8267 166.76 11.9867 167.56 13.48C168.36 14.9733 168.76 16.72 168.76 18.72V20.28H153.6C153.654 22.0133 154.227 23.4 155.32 24.44C156.44 25.4533 157.827 25.96 159.48 25.96C161.027 25.96 162.187 25.6133 162.96 24.92C163.76 24.2267 164.374 23.4267 164.8 22.52L168.2 24.28C167.827 25.0267 167.28 25.8133 166.56 26.64C165.867 27.4667 164.947 28.16 163.8 28.72C162.654 29.28 161.187 29.56 159.4 29.56ZM153.64 17.12H164.56C164.454 15.6267 163.92 14.4667 162.96 13.64C162 12.7867 160.747 12.36 159.2 12.36C157.654 12.36 156.387 12.7867 155.4 13.64C154.44 14.4667 153.854 15.6267 153.64 17.12Z" fill="#E5E5E5"/>
</svg>
